# xmcd
#
# Track frame offsets: 
#        183
#        10033
#        21133
#        32345
#        43995
#        53708
#        64670
#        76545
#        87920
#        100583
#        113420
#        125820
#        138308
#        152295
#        162870
#        175370
#        185795
#        196420
#        206720
#        216445
#
# Disc length: 3044 seconds
#
# Revision: 1
# Processed by: cddbd v1.5.2PL0 Copyright (c) Steve Scherf et al.
# Submitted via: ExactAudioCopyFreeDBPlugin 1.0
#
DISCID=040be214
DTITLE=Buddy Johnson - Swing Me
DYEAR=1989
DGENRE=Rhythm and Blues
TTITLE0=What a Day
TTITLE1=That's What You Gotta Do
TTITLE2=My Old Man
TTITLE3=I Still Love You
TTITLE4=Why Don't You Stop It
TTITLE5=We'll Do It
TTITLE6=Someday
TTITLE7=If You'd Say Yes
TTITLE8=Allright, Okay, You Win
TTITLE9=It's About to Break My Heart in Two
TTITLE10=Thinking it Over
TTITLE11=It Used to Hurt Me
TTITLE12=If You Would Only Say You're Sorry
TTITLE13=You Are the One for Me
TTITLE14=Goodbye Baby
TTITLE15=Lover Bird
TTITLE16=Don't You Want to Be Mine
TTITLE17=The Last Laughs on You
TTITLE18=Good Times Man
TTITLE19=Ever So Grateful
EXTD=
EXTT0=
EXTT1=
EXTT2=
EXTT3=
EXTT4=
EXTT5=
EXTT6=
EXTT7=
EXTT8=
EXTT9=
EXTT10=
EXTT11=
EXTT12=
EXTT13=
EXTT14=
EXTT15=
EXTT16=
EXTT17=
EXTT18=
EXTT19=
PLAYORDER=
